<mxfile host="app.diagrams.net" modified="2023-06-30T15:34:03.632Z" agent="Mozilla/5.0 (Windows NT 10.0; Win64; x64) AppleWebKit/537.36 (KHTML, like Gecko) Chrome/112.0.0.0 YaBrowser/23.5.2.625 Yowser/2.5 Safari/537.36" etag="3ApSCuQaGw5PLd7iI-zn" version="21.5.0" type="device">
  <diagram name="Страница 1" id="WLzNpQifL4xy7mwZz4oh">
    <mxGraphModel dx="1050" dy="575" grid="1" gridSize="10" guides="1" tooltips="1" connect="1" arrows="1" fold="1" page="1" pageScale="1" pageWidth="827" pageHeight="1169" math="0" shadow="0">
      <root>
        <mxCell id="0" />
        <mxCell id="1" parent="0" />
        <mxCell id="GrwXA2iVND5QCrZdx1td-14" value="Movie" style="shape=table;startSize=30;container=1;collapsible=0;childLayout=tableLayout;fixedRows=1;rowLines=0;fontStyle=0;strokeColor=default;fontSize=16;" vertex="1" parent="1">
          <mxGeometry x="140" y="240" width="211" height="500" as="geometry" />
        </mxCell>
        <mxCell id="GrwXA2iVND5QCrZdx1td-15" value="" style="shape=tableRow;horizontal=0;startSize=0;swimlaneHead=0;swimlaneBody=0;top=0;left=0;bottom=0;right=0;collapsible=0;dropTarget=0;fillColor=none;points=[[0,0.5],[1,0.5]];portConstraint=eastwest;strokeColor=inherit;fontSize=16;" vertex="1" parent="GrwXA2iVND5QCrZdx1td-14">
          <mxGeometry y="30" width="211" height="30" as="geometry" />
        </mxCell>
        <mxCell id="GrwXA2iVND5QCrZdx1td-16" value="id" style="shape=partialRectangle;html=1;whiteSpace=wrap;connectable=0;fillColor=none;top=0;left=0;bottom=0;right=0;overflow=hidden;pointerEvents=1;strokeColor=inherit;fontSize=16;" vertex="1" parent="GrwXA2iVND5QCrZdx1td-15">
          <mxGeometry width="100" height="30" as="geometry">
            <mxRectangle width="100" height="30" as="alternateBounds" />
          </mxGeometry>
        </mxCell>
        <mxCell id="GrwXA2iVND5QCrZdx1td-17" value="уникальный" style="shape=partialRectangle;html=1;whiteSpace=wrap;connectable=0;fillColor=none;top=0;left=0;bottom=0;right=0;align=left;spacingLeft=6;overflow=hidden;strokeColor=inherit;fontSize=16;" vertex="1" parent="GrwXA2iVND5QCrZdx1td-15">
          <mxGeometry x="100" width="111" height="30" as="geometry">
            <mxRectangle width="111" height="30" as="alternateBounds" />
          </mxGeometry>
        </mxCell>
        <mxCell id="GrwXA2iVND5QCrZdx1td-18" value="" style="shape=tableRow;horizontal=0;startSize=0;swimlaneHead=0;swimlaneBody=0;top=0;left=0;bottom=0;right=0;collapsible=0;dropTarget=0;fillColor=none;points=[[0,0.5],[1,0.5]];portConstraint=eastwest;strokeColor=inherit;fontSize=16;" vertex="1" parent="GrwXA2iVND5QCrZdx1td-14">
          <mxGeometry y="60" width="211" height="30" as="geometry" />
        </mxCell>
        <mxCell id="GrwXA2iVND5QCrZdx1td-19" value="title" style="shape=partialRectangle;html=1;whiteSpace=wrap;connectable=0;fillColor=none;top=0;left=0;bottom=0;right=0;overflow=hidden;strokeColor=inherit;fontSize=16;" vertex="1" parent="GrwXA2iVND5QCrZdx1td-18">
          <mxGeometry width="100" height="30" as="geometry">
            <mxRectangle width="100" height="30" as="alternateBounds" />
          </mxGeometry>
        </mxCell>
        <mxCell id="GrwXA2iVND5QCrZdx1td-20" value="String" style="shape=partialRectangle;html=1;whiteSpace=wrap;connectable=0;fillColor=none;top=0;left=0;bottom=0;right=0;align=left;spacingLeft=6;overflow=hidden;strokeColor=inherit;fontSize=16;" vertex="1" parent="GrwXA2iVND5QCrZdx1td-18">
          <mxGeometry x="100" width="111" height="30" as="geometry">
            <mxRectangle width="111" height="30" as="alternateBounds" />
          </mxGeometry>
        </mxCell>
        <mxCell id="GrwXA2iVND5QCrZdx1td-21" style="shape=tableRow;horizontal=0;startSize=0;swimlaneHead=0;swimlaneBody=0;top=0;left=0;bottom=0;right=0;collapsible=0;dropTarget=0;fillColor=none;points=[[0,0.5],[1,0.5]];portConstraint=eastwest;strokeColor=inherit;fontSize=16;" vertex="1" parent="GrwXA2iVND5QCrZdx1td-14">
          <mxGeometry y="90" width="211" height="30" as="geometry" />
        </mxCell>
        <mxCell id="GrwXA2iVND5QCrZdx1td-22" value="year" style="shape=partialRectangle;html=1;whiteSpace=wrap;connectable=0;fillColor=none;top=0;left=0;bottom=0;right=0;overflow=hidden;strokeColor=inherit;fontSize=16;" vertex="1" parent="GrwXA2iVND5QCrZdx1td-21">
          <mxGeometry width="100" height="30" as="geometry">
            <mxRectangle width="100" height="30" as="alternateBounds" />
          </mxGeometry>
        </mxCell>
        <mxCell id="GrwXA2iVND5QCrZdx1td-23" value="Number" style="shape=partialRectangle;html=1;whiteSpace=wrap;connectable=0;fillColor=none;top=0;left=0;bottom=0;right=0;align=left;spacingLeft=6;overflow=hidden;strokeColor=inherit;fontSize=16;" vertex="1" parent="GrwXA2iVND5QCrZdx1td-21">
          <mxGeometry x="100" width="111" height="30" as="geometry">
            <mxRectangle width="111" height="30" as="alternateBounds" />
          </mxGeometry>
        </mxCell>
        <mxCell id="GrwXA2iVND5QCrZdx1td-24" style="shape=tableRow;horizontal=0;startSize=0;swimlaneHead=0;swimlaneBody=0;top=0;left=0;bottom=0;right=0;collapsible=0;dropTarget=0;fillColor=none;points=[[0,0.5],[1,0.5]];portConstraint=eastwest;strokeColor=inherit;fontSize=16;" vertex="1" parent="GrwXA2iVND5QCrZdx1td-14">
          <mxGeometry y="120" width="211" height="30" as="geometry" />
        </mxCell>
        <mxCell id="GrwXA2iVND5QCrZdx1td-25" value="ageLimit" style="shape=partialRectangle;html=1;whiteSpace=wrap;connectable=0;fillColor=none;top=0;left=0;bottom=0;right=0;overflow=hidden;strokeColor=inherit;fontSize=16;" vertex="1" parent="GrwXA2iVND5QCrZdx1td-24">
          <mxGeometry width="100" height="30" as="geometry">
            <mxRectangle width="100" height="30" as="alternateBounds" />
          </mxGeometry>
        </mxCell>
        <mxCell id="GrwXA2iVND5QCrZdx1td-26" value="Number" style="shape=partialRectangle;html=1;whiteSpace=wrap;connectable=0;fillColor=none;top=0;left=0;bottom=0;right=0;align=left;spacingLeft=6;overflow=hidden;strokeColor=inherit;fontSize=16;" vertex="1" parent="GrwXA2iVND5QCrZdx1td-24">
          <mxGeometry x="100" width="111" height="30" as="geometry">
            <mxRectangle width="111" height="30" as="alternateBounds" />
          </mxGeometry>
        </mxCell>
        <mxCell id="GrwXA2iVND5QCrZdx1td-27" style="shape=tableRow;horizontal=0;startSize=0;swimlaneHead=0;swimlaneBody=0;top=0;left=0;bottom=0;right=0;collapsible=0;dropTarget=0;fillColor=none;points=[[0,0.5],[1,0.5]];portConstraint=eastwest;strokeColor=inherit;fontSize=16;" vertex="1" parent="GrwXA2iVND5QCrZdx1td-14">
          <mxGeometry y="150" width="211" height="40" as="geometry" />
        </mxCell>
        <mxCell id="GrwXA2iVND5QCrZdx1td-28" value="rating" style="shape=partialRectangle;html=1;whiteSpace=wrap;connectable=0;fillColor=none;top=0;left=0;bottom=0;right=0;overflow=hidden;strokeColor=inherit;fontSize=16;" vertex="1" parent="GrwXA2iVND5QCrZdx1td-27">
          <mxGeometry width="100" height="40" as="geometry">
            <mxRectangle width="100" height="40" as="alternateBounds" />
          </mxGeometry>
        </mxCell>
        <mxCell id="GrwXA2iVND5QCrZdx1td-29" value="Number (min: 1, max: 10)" style="shape=partialRectangle;html=1;whiteSpace=wrap;connectable=0;fillColor=none;top=0;left=0;bottom=0;right=0;align=left;spacingLeft=6;overflow=hidden;strokeColor=inherit;fontSize=16;" vertex="1" parent="GrwXA2iVND5QCrZdx1td-27">
          <mxGeometry x="100" width="111" height="40" as="geometry">
            <mxRectangle width="111" height="40" as="alternateBounds" />
          </mxGeometry>
        </mxCell>
        <mxCell id="GrwXA2iVND5QCrZdx1td-30" style="shape=tableRow;horizontal=0;startSize=0;swimlaneHead=0;swimlaneBody=0;top=0;left=0;bottom=0;right=0;collapsible=0;dropTarget=0;fillColor=none;points=[[0,0.5],[1,0.5]];portConstraint=eastwest;strokeColor=inherit;fontSize=16;" vertex="1" parent="GrwXA2iVND5QCrZdx1td-14">
          <mxGeometry y="190" width="211" height="60" as="geometry" />
        </mxCell>
        <mxCell id="GrwXA2iVND5QCrZdx1td-31" value="briefPlot" style="shape=partialRectangle;html=1;whiteSpace=wrap;connectable=0;fillColor=none;top=0;left=0;bottom=0;right=0;overflow=hidden;strokeColor=inherit;fontSize=16;" vertex="1" parent="GrwXA2iVND5QCrZdx1td-30">
          <mxGeometry width="100" height="60" as="geometry">
            <mxRectangle width="100" height="60" as="alternateBounds" />
          </mxGeometry>
        </mxCell>
        <mxCell id="GrwXA2iVND5QCrZdx1td-32" value="String" style="shape=partialRectangle;html=1;whiteSpace=wrap;connectable=0;fillColor=none;top=0;left=0;bottom=0;right=0;align=left;spacingLeft=6;overflow=hidden;strokeColor=inherit;fontSize=16;" vertex="1" parent="GrwXA2iVND5QCrZdx1td-30">
          <mxGeometry x="100" width="111" height="60" as="geometry">
            <mxRectangle width="111" height="60" as="alternateBounds" />
          </mxGeometry>
        </mxCell>
        <mxCell id="GrwXA2iVND5QCrZdx1td-33" style="shape=tableRow;horizontal=0;startSize=0;swimlaneHead=0;swimlaneBody=0;top=0;left=0;bottom=0;right=0;collapsible=0;dropTarget=0;fillColor=none;points=[[0,0.5],[1,0.5]];portConstraint=eastwest;strokeColor=inherit;fontSize=16;" vertex="1" parent="GrwXA2iVND5QCrZdx1td-14">
          <mxGeometry y="250" width="211" height="50" as="geometry" />
        </mxCell>
        <mxCell id="GrwXA2iVND5QCrZdx1td-34" value="genre" style="shape=partialRectangle;html=1;whiteSpace=wrap;connectable=0;fillColor=none;top=0;left=0;bottom=0;right=0;overflow=hidden;strokeColor=inherit;fontSize=16;" vertex="1" parent="GrwXA2iVND5QCrZdx1td-33">
          <mxGeometry width="100" height="50" as="geometry">
            <mxRectangle width="100" height="50" as="alternateBounds" />
          </mxGeometry>
        </mxCell>
        <mxCell id="GrwXA2iVND5QCrZdx1td-35" value="массив Strings" style="shape=partialRectangle;html=1;whiteSpace=wrap;connectable=0;fillColor=none;top=0;left=0;bottom=0;right=0;align=left;spacingLeft=6;overflow=hidden;strokeColor=inherit;fontSize=16;" vertex="1" parent="GrwXA2iVND5QCrZdx1td-33">
          <mxGeometry x="100" width="111" height="50" as="geometry">
            <mxRectangle width="111" height="50" as="alternateBounds" />
          </mxGeometry>
        </mxCell>
        <mxCell id="GrwXA2iVND5QCrZdx1td-36" style="shape=tableRow;horizontal=0;startSize=0;swimlaneHead=0;swimlaneBody=0;top=0;left=0;bottom=0;right=0;collapsible=0;dropTarget=0;fillColor=none;points=[[0,0.5],[1,0.5]];portConstraint=eastwest;strokeColor=inherit;fontSize=16;" vertex="1" parent="GrwXA2iVND5QCrZdx1td-14">
          <mxGeometry y="300" width="211" height="50" as="geometry" />
        </mxCell>
        <mxCell id="GrwXA2iVND5QCrZdx1td-37" value="link" style="shape=partialRectangle;html=1;whiteSpace=wrap;connectable=0;fillColor=none;top=0;left=0;bottom=0;right=0;overflow=hidden;strokeColor=inherit;fontSize=16;" vertex="1" parent="GrwXA2iVND5QCrZdx1td-36">
          <mxGeometry width="100" height="50" as="geometry">
            <mxRectangle width="100" height="50" as="alternateBounds" />
          </mxGeometry>
        </mxCell>
        <mxCell id="GrwXA2iVND5QCrZdx1td-38" value="String" style="shape=partialRectangle;html=1;whiteSpace=wrap;connectable=0;fillColor=none;top=0;left=0;bottom=0;right=0;align=left;spacingLeft=6;overflow=hidden;strokeColor=inherit;fontSize=16;" vertex="1" parent="GrwXA2iVND5QCrZdx1td-36">
          <mxGeometry x="100" width="111" height="50" as="geometry">
            <mxRectangle width="111" height="50" as="alternateBounds" />
          </mxGeometry>
        </mxCell>
        <mxCell id="GrwXA2iVND5QCrZdx1td-39" style="shape=tableRow;horizontal=0;startSize=0;swimlaneHead=0;swimlaneBody=0;top=0;left=0;bottom=0;right=0;collapsible=0;dropTarget=0;fillColor=none;points=[[0,0.5],[1,0.5]];portConstraint=eastwest;strokeColor=inherit;fontSize=16;" vertex="1" parent="GrwXA2iVND5QCrZdx1td-14">
          <mxGeometry y="350" width="211" height="90" as="geometry" />
        </mxCell>
        <mxCell id="GrwXA2iVND5QCrZdx1td-40" value="reviews" style="shape=partialRectangle;html=1;whiteSpace=wrap;connectable=0;fillColor=none;top=0;left=0;bottom=0;right=0;overflow=hidden;strokeColor=inherit;fontSize=16;" vertex="1" parent="GrwXA2iVND5QCrZdx1td-39">
          <mxGeometry width="100" height="90" as="geometry">
            <mxRectangle width="100" height="90" as="alternateBounds" />
          </mxGeometry>
        </mxCell>
        <mxCell id="GrwXA2iVND5QCrZdx1td-41" value="массив id отзывов" style="shape=partialRectangle;html=1;whiteSpace=wrap;connectable=0;fillColor=none;top=0;left=0;bottom=0;right=0;align=left;spacingLeft=6;overflow=hidden;strokeColor=inherit;fontSize=16;" vertex="1" parent="GrwXA2iVND5QCrZdx1td-39">
          <mxGeometry x="100" width="111" height="90" as="geometry">
            <mxRectangle width="111" height="90" as="alternateBounds" />
          </mxGeometry>
        </mxCell>
        <mxCell id="GrwXA2iVND5QCrZdx1td-81" style="shape=tableRow;horizontal=0;startSize=0;swimlaneHead=0;swimlaneBody=0;top=0;left=0;bottom=0;right=0;collapsible=0;dropTarget=0;fillColor=none;points=[[0,0.5],[1,0.5]];portConstraint=eastwest;strokeColor=inherit;fontSize=16;" vertex="1" parent="GrwXA2iVND5QCrZdx1td-14">
          <mxGeometry y="440" width="211" height="60" as="geometry" />
        </mxCell>
        <mxCell id="GrwXA2iVND5QCrZdx1td-82" value="image" style="shape=partialRectangle;html=1;whiteSpace=wrap;connectable=0;fillColor=none;top=0;left=0;bottom=0;right=0;overflow=hidden;strokeColor=inherit;fontSize=16;" vertex="1" parent="GrwXA2iVND5QCrZdx1td-81">
          <mxGeometry width="100" height="60" as="geometry">
            <mxRectangle width="100" height="60" as="alternateBounds" />
          </mxGeometry>
        </mxCell>
        <mxCell id="GrwXA2iVND5QCrZdx1td-83" value="String" style="shape=partialRectangle;html=1;whiteSpace=wrap;connectable=0;fillColor=none;top=0;left=0;bottom=0;right=0;align=left;spacingLeft=6;overflow=hidden;strokeColor=inherit;fontSize=16;" vertex="1" parent="GrwXA2iVND5QCrZdx1td-81">
          <mxGeometry x="100" width="111" height="60" as="geometry">
            <mxRectangle width="111" height="60" as="alternateBounds" />
          </mxGeometry>
        </mxCell>
        <mxCell id="GrwXA2iVND5QCrZdx1td-55" value="Review" style="shape=table;startSize=30;container=1;collapsible=0;childLayout=tableLayout;fixedRows=1;rowLines=0;fontStyle=0;strokeColor=default;fontSize=16;" vertex="1" parent="1">
          <mxGeometry x="490" y="290" width="190" height="180" as="geometry" />
        </mxCell>
        <mxCell id="GrwXA2iVND5QCrZdx1td-56" value="" style="shape=tableRow;horizontal=0;startSize=0;swimlaneHead=0;swimlaneBody=0;top=0;left=0;bottom=0;right=0;collapsible=0;dropTarget=0;fillColor=none;points=[[0,0.5],[1,0.5]];portConstraint=eastwest;strokeColor=inherit;fontSize=16;" vertex="1" parent="GrwXA2iVND5QCrZdx1td-55">
          <mxGeometry y="30" width="190" height="30" as="geometry" />
        </mxCell>
        <mxCell id="GrwXA2iVND5QCrZdx1td-57" value="id" style="shape=partialRectangle;html=1;whiteSpace=wrap;connectable=0;fillColor=none;top=0;left=0;bottom=0;right=0;overflow=hidden;pointerEvents=1;strokeColor=inherit;fontSize=16;" vertex="1" parent="GrwXA2iVND5QCrZdx1td-56">
          <mxGeometry width="80" height="30" as="geometry">
            <mxRectangle width="80" height="30" as="alternateBounds" />
          </mxGeometry>
        </mxCell>
        <mxCell id="GrwXA2iVND5QCrZdx1td-58" value="уникальный" style="shape=partialRectangle;html=1;whiteSpace=wrap;connectable=0;fillColor=none;top=0;left=0;bottom=0;right=0;align=left;spacingLeft=6;overflow=hidden;strokeColor=inherit;fontSize=16;" vertex="1" parent="GrwXA2iVND5QCrZdx1td-56">
          <mxGeometry x="80" width="110" height="30" as="geometry">
            <mxRectangle width="110" height="30" as="alternateBounds" />
          </mxGeometry>
        </mxCell>
        <mxCell id="GrwXA2iVND5QCrZdx1td-59" value="" style="shape=tableRow;horizontal=0;startSize=0;swimlaneHead=0;swimlaneBody=0;top=0;left=0;bottom=0;right=0;collapsible=0;dropTarget=0;fillColor=none;points=[[0,0.5],[1,0.5]];portConstraint=eastwest;strokeColor=inherit;fontSize=16;" vertex="1" parent="GrwXA2iVND5QCrZdx1td-55">
          <mxGeometry y="60" width="190" height="70" as="geometry" />
        </mxCell>
        <mxCell id="GrwXA2iVND5QCrZdx1td-60" value="author" style="shape=partialRectangle;html=1;whiteSpace=wrap;connectable=0;fillColor=none;top=0;left=0;bottom=0;right=0;overflow=hidden;strokeColor=inherit;fontSize=16;" vertex="1" parent="GrwXA2iVND5QCrZdx1td-59">
          <mxGeometry width="80" height="70" as="geometry">
            <mxRectangle width="80" height="70" as="alternateBounds" />
          </mxGeometry>
        </mxCell>
        <mxCell id="GrwXA2iVND5QCrZdx1td-61" value="String (anonymous)" style="shape=partialRectangle;html=1;whiteSpace=wrap;connectable=0;fillColor=none;top=0;left=0;bottom=0;right=0;align=left;spacingLeft=6;overflow=hidden;strokeColor=inherit;fontSize=16;" vertex="1" parent="GrwXA2iVND5QCrZdx1td-59">
          <mxGeometry x="80" width="110" height="70" as="geometry">
            <mxRectangle width="110" height="70" as="alternateBounds" />
          </mxGeometry>
        </mxCell>
        <mxCell id="GrwXA2iVND5QCrZdx1td-62" style="shape=tableRow;horizontal=0;startSize=0;swimlaneHead=0;swimlaneBody=0;top=0;left=0;bottom=0;right=0;collapsible=0;dropTarget=0;fillColor=none;points=[[0,0.5],[1,0.5]];portConstraint=eastwest;strokeColor=inherit;fontSize=16;" vertex="1" parent="GrwXA2iVND5QCrZdx1td-55">
          <mxGeometry y="130" width="190" height="50" as="geometry" />
        </mxCell>
        <mxCell id="GrwXA2iVND5QCrZdx1td-63" value="text" style="shape=partialRectangle;html=1;whiteSpace=wrap;connectable=0;fillColor=none;top=0;left=0;bottom=0;right=0;overflow=hidden;strokeColor=inherit;fontSize=16;" vertex="1" parent="GrwXA2iVND5QCrZdx1td-62">
          <mxGeometry width="80" height="50" as="geometry">
            <mxRectangle width="80" height="50" as="alternateBounds" />
          </mxGeometry>
        </mxCell>
        <mxCell id="GrwXA2iVND5QCrZdx1td-64" value="String" style="shape=partialRectangle;html=1;whiteSpace=wrap;connectable=0;fillColor=none;top=0;left=0;bottom=0;right=0;align=left;spacingLeft=6;overflow=hidden;strokeColor=inherit;fontSize=16;" vertex="1" parent="GrwXA2iVND5QCrZdx1td-62">
          <mxGeometry x="80" width="110" height="50" as="geometry">
            <mxRectangle width="110" height="50" as="alternateBounds" />
          </mxGeometry>
        </mxCell>
        <mxCell id="GrwXA2iVND5QCrZdx1td-65" value="&lt;h1 style=&quot;&quot;&gt;Movies World&lt;/h1&gt;" style="text;html=1;strokeColor=none;fillColor=none;spacing=5;spacingTop=-20;whiteSpace=wrap;overflow=hidden;rounded=0;align=center;" vertex="1" parent="1">
          <mxGeometry x="319" y="40" width="190" height="40" as="geometry" />
        </mxCell>
        <mxCell id="GrwXA2iVND5QCrZdx1td-78" style="edgeStyle=orthogonalEdgeStyle;rounded=0;orthogonalLoop=1;jettySize=auto;html=1;entryX=1;entryY=0.5;entryDx=0;entryDy=0;" edge="1" parent="1" source="GrwXA2iVND5QCrZdx1td-39" target="GrwXA2iVND5QCrZdx1td-56">
          <mxGeometry relative="1" as="geometry" />
        </mxCell>
        <mxCell id="GrwXA2iVND5QCrZdx1td-79" value="1" style="edgeLabel;html=1;align=center;verticalAlign=middle;resizable=0;points=[];" vertex="1" connectable="0" parent="GrwXA2iVND5QCrZdx1td-78">
          <mxGeometry x="-0.8028" y="-3" relative="1" as="geometry">
            <mxPoint as="offset" />
          </mxGeometry>
        </mxCell>
        <mxCell id="GrwXA2iVND5QCrZdx1td-80" value="1000" style="edgeLabel;html=1;align=center;verticalAlign=middle;resizable=0;points=[];" vertex="1" connectable="0" parent="GrwXA2iVND5QCrZdx1td-78">
          <mxGeometry x="0.8231" y="2" relative="1" as="geometry">
            <mxPoint as="offset" />
          </mxGeometry>
        </mxCell>
      </root>
    </mxGraphModel>
  </diagram>
</mxfile>
